<svg width="85" height="85" viewBox="0 0 85 85" fill="none" xmlns="http://www.w3.org/2000/svg">
<path d="M34.3603 56H30.9441L40.8248 29.0909H44.1884L54.0691 56H50.6529L42.6117 33.348H42.4015L34.3603 56ZM35.6216 45.4886H49.3915V48.3793H35.6216V45.4886Z" fill="white"/>
<path d="M42.5 6.47214L50.1397 29.9848L50.5888 31.3668H52.0418H76.7645L56.7635 45.8984L55.5879 46.7525L56.0369 48.1345L63.6766 71.6472L43.6756 57.1155L42.5 56.2614L41.3244 57.1155L21.3234 71.6472L28.9631 48.1345L29.4121 46.7525L28.2365 45.8984L8.23547 31.3668H32.9582H34.4112L34.8603 29.9848L42.5 6.47214Z" stroke="#FF0000" stroke-width="4"/>
</svg>
