<svg width="293" height="76" viewBox="0 0 293 76" fill="none" xmlns="http://www.w3.org/2000/svg">
<path d="M15.7003 54H12.0071L22.6889 24.9091H26.3253L37.0071 54H33.3139L24.6207 29.5114H24.3935L15.7003 54ZM17.0639 42.6364H31.9503V45.7614H17.0639V42.6364Z" fill="white"/>
<g opacity="0.99">
<path d="M24.5 20V20C24.5 10.6112 32.1112 3 41.5 3H266C279.255 3 290 13.7452 290 27V49C290 62.2548 279.255 73 266 73H38.5C30.768 73 24.5 66.732 24.5 59V59" stroke="#FF0000" stroke-width="5" stroke-linecap="round" stroke-linejoin="bevel"/>
</g>
<path d="M61.8328 50H59.0629L67.0743 28.1818H69.8016L77.8129 50H75.0431L68.5232 31.6335H68.3527L61.8328 50ZM62.8556 41.4773H74.0203V43.821H62.8556V41.4773ZM82.7114 50V28.1818H85.2256V36.2358H85.4387C85.6233 35.9517 85.879 35.5895 86.2057 35.1491C86.5395 34.7017 87.0154 34.304 87.6333 33.956C88.2583 33.6009 89.1034 33.4233 90.1688 33.4233C91.5466 33.4233 92.7611 33.7678 93.8122 34.4567C94.8634 35.1456 95.6837 36.1222 96.2732 37.3864C96.8627 38.6506 97.1574 40.142 97.1574 41.8608C97.1574 43.5938 96.8627 45.0959 96.2732 46.3672C95.6837 47.6314 94.8669 48.6115 93.8229 49.3075C92.7789 49.9964 91.575 50.3409 90.2114 50.3409C89.1602 50.3409 88.3186 50.1669 87.6865 49.8189C87.0544 49.4638 86.5679 49.0625 86.227 48.6151C85.8861 48.1605 85.6233 47.7841 85.4387 47.4858H85.1404V50H82.7114ZM85.183 41.8182C85.183 43.054 85.3641 44.1442 85.7263 45.0888C86.0885 46.0263 86.6176 46.7614 87.3137 47.294C88.0097 47.8196 88.8619 48.0824 89.8705 48.0824C90.9216 48.0824 91.7987 47.8054 92.5019 47.2514C93.2121 46.6903 93.7448 45.9375 94.0999 44.9929C94.4621 44.0412 94.6432 42.983 94.6432 41.8182C94.6432 40.6676 94.4656 39.6307 94.1105 38.7074C93.7625 37.777 93.2334 37.0419 92.5232 36.5021C91.82 35.9553 90.9358 35.6818 89.8705 35.6818C88.8477 35.6818 87.9884 35.9411 87.2923 36.4595C86.5963 36.9709 86.0708 37.6882 85.7156 38.6115C85.3605 39.5277 85.183 40.5966 85.183 41.8182ZM108.682 50.3409C107.319 50.3409 106.115 49.9964 105.071 49.3075C104.027 48.6115 103.21 47.6314 102.62 46.3672C102.031 45.0959 101.736 43.5938 101.736 41.8608C101.736 40.142 102.031 38.6506 102.62 37.3864C103.21 36.1222 104.03 35.1456 105.081 34.4567C106.133 33.7678 107.347 33.4233 108.725 33.4233C109.79 33.4233 110.632 33.6009 111.25 33.956C111.875 34.304 112.351 34.7017 112.677 35.1491C113.011 35.5895 113.27 35.9517 113.455 36.2358H113.668V28.1818H116.182V50H113.753V47.4858H113.455C113.27 47.7841 113.008 48.1605 112.667 48.6151C112.326 49.0625 111.839 49.4638 111.207 49.8189C110.575 50.1669 109.733 50.3409 108.682 50.3409ZM109.023 48.0824C110.032 48.0824 110.884 47.8196 111.58 47.294C112.276 46.7614 112.805 46.0263 113.167 45.0888C113.53 44.1442 113.711 43.054 113.711 41.8182C113.711 40.5966 113.533 39.5277 113.178 38.6115C112.823 37.6882 112.297 36.9709 111.601 36.4595C110.905 35.9411 110.046 35.6818 109.023 35.6818C107.958 35.6818 107.07 35.9553 106.36 36.5021C105.657 37.0419 105.128 37.777 104.772 38.7074C104.424 39.6307 104.25 40.6676 104.25 41.8182C104.25 42.983 104.428 44.0412 104.783 44.9929C105.145 45.9375 105.678 46.6903 106.381 47.2514C107.091 47.8054 107.972 48.0824 109.023 48.0824ZM132.949 43.3097V33.6364H135.463V50H132.949V47.2301H132.778C132.395 48.0611 131.798 48.7678 130.988 49.3501C130.179 49.9254 129.156 50.2131 127.92 50.2131C126.897 50.2131 125.988 49.9893 125.193 49.5419C124.397 49.0874 123.772 48.4055 123.318 47.4964C122.863 46.5803 122.636 45.4261 122.636 44.0341V33.6364H125.15V43.8636C125.15 45.0568 125.484 46.0085 126.152 46.7188C126.826 47.429 127.686 47.7841 128.73 47.7841C129.355 47.7841 129.991 47.6243 130.637 47.3047C131.29 46.9851 131.837 46.495 132.277 45.8345C132.725 45.174 132.949 44.3324 132.949 43.3097ZM144.082 28.1818V50H141.568V28.1818H144.082ZM150.187 50V33.6364H152.616V36.108H152.786C153.085 35.2983 153.624 34.6413 154.406 34.1371C155.187 33.6328 156.068 33.3807 157.048 33.3807C157.232 33.3807 157.463 33.3842 157.74 33.3913C158.017 33.3984 158.227 33.4091 158.369 33.4233V35.9801C158.283 35.9588 158.088 35.9268 157.783 35.8842C157.484 35.8345 157.168 35.8097 156.835 35.8097C156.039 35.8097 155.329 35.9766 154.704 36.3104C154.086 36.6371 153.596 37.0916 153.234 37.674C152.879 38.2493 152.701 38.9062 152.701 39.6449V50H150.187ZM167.664 50.3835C166.627 50.3835 165.686 50.1882 164.841 49.7976C163.996 49.3999 163.325 48.8281 162.828 48.0824C162.331 47.3295 162.082 46.4205 162.082 45.3551C162.082 44.4176 162.267 43.6577 162.636 43.0753C163.005 42.4858 163.499 42.0241 164.117 41.6903C164.735 41.3565 165.416 41.108 166.162 40.9446C166.915 40.7741 167.671 40.6392 168.431 40.5398C169.426 40.4119 170.232 40.3161 170.85 40.2521C171.475 40.1811 171.929 40.0639 172.213 39.9006C172.505 39.7372 172.65 39.4531 172.65 39.0483V38.9631C172.65 37.9119 172.362 37.0952 171.787 36.5128C171.219 35.9304 170.356 35.6392 169.198 35.6392C167.998 35.6392 167.057 35.902 166.375 36.4276C165.693 36.9531 165.214 37.5142 164.937 38.1108L162.551 37.2585C162.977 36.2642 163.545 35.4901 164.255 34.9361C164.973 34.375 165.754 33.9844 166.599 33.7642C167.451 33.5369 168.289 33.4233 169.113 33.4233C169.639 33.4233 170.242 33.4872 170.924 33.6151C171.613 33.7358 172.277 33.9879 172.916 34.3714C173.563 34.755 174.099 35.3338 174.525 36.108C174.951 36.8821 175.164 37.919 175.164 39.2188V50H172.65V47.7841H172.522C172.352 48.1392 172.068 48.5192 171.67 48.924C171.272 49.3288 170.743 49.6733 170.083 49.9574C169.422 50.2415 168.616 50.3835 167.664 50.3835ZM168.048 48.125C169.042 48.125 169.88 47.9297 170.562 47.5391C171.251 47.1484 171.769 46.6442 172.117 46.0263C172.473 45.4084 172.65 44.7585 172.65 44.0767V41.7756C172.544 41.9034 172.309 42.0206 171.947 42.1271C171.592 42.2266 171.18 42.3153 170.711 42.3935C170.25 42.4645 169.799 42.5284 169.358 42.5852C168.925 42.6349 168.573 42.6776 168.304 42.7131C167.65 42.7983 167.039 42.9368 166.471 43.1286C165.91 43.3132 165.456 43.5937 165.108 43.9702C164.767 44.3395 164.596 44.8437 164.596 45.483C164.596 46.3565 164.919 47.017 165.566 47.4645C166.219 47.9048 167.046 48.125 168.048 48.125ZM183.767 40.1562V50H181.253V28.1818H183.767V36.1932H183.981C184.364 35.348 184.939 34.6768 185.706 34.1797C186.481 33.6754 187.51 33.4233 188.796 33.4233C189.911 33.4233 190.888 33.647 191.726 34.0945C192.564 34.5348 193.214 35.2131 193.675 36.1293C194.144 37.0384 194.378 38.196 194.378 39.6023V50H191.864V39.7727C191.864 38.473 191.527 37.468 190.852 36.7578C190.184 36.0405 189.258 35.6818 188.071 35.6818C187.248 35.6818 186.509 35.8558 185.856 36.2038C185.209 36.5518 184.698 37.0597 184.321 37.7273C183.952 38.3949 183.767 39.2045 183.767 40.1562ZM200.478 50V33.6364H202.907V36.1932H203.12C203.461 35.3196 204.011 34.6413 204.771 34.1584C205.531 33.6683 206.444 33.4233 207.509 33.4233C208.589 33.4233 209.487 33.6683 210.204 34.1584C210.929 34.6413 211.494 35.3196 211.898 36.1932H212.069C212.488 35.348 213.116 34.6768 213.954 34.1797C214.793 33.6754 215.797 33.4233 216.969 33.4233C218.432 33.4233 219.629 33.8814 220.56 34.7976C221.49 35.7067 221.955 37.1236 221.955 39.0483V50H219.441V39.0483C219.441 37.8409 219.111 36.978 218.45 36.4595C217.79 35.9411 217.012 35.6818 216.117 35.6818C214.967 35.6818 214.075 36.0298 213.443 36.7259C212.811 37.4148 212.495 38.2884 212.495 39.3466V50H209.938V38.7926C209.938 37.8622 209.636 37.1129 209.033 36.5447C208.429 35.9695 207.651 35.6818 206.699 35.6818C206.046 35.6818 205.435 35.8558 204.867 36.2038C204.306 36.5518 203.851 37.0348 203.503 37.6527C203.163 38.2635 202.992 38.9702 202.992 39.7727V50H200.478ZM232.867 50.3835C231.831 50.3835 230.889 50.1882 230.044 49.7976C229.199 49.3999 228.528 48.8281 228.031 48.0824C227.534 47.3295 227.285 46.4205 227.285 45.3551C227.285 44.4176 227.47 43.6577 227.839 43.0753C228.208 42.4858 228.702 42.0241 229.32 41.6903C229.938 41.3565 230.62 41.108 231.365 40.9446C232.118 40.7741 232.875 40.6392 233.634 40.5398C234.629 40.4119 235.435 40.3161 236.053 40.2521C236.678 40.1811 237.132 40.0639 237.416 39.9006C237.708 39.7372 237.853 39.4531 237.853 39.0483V38.9631C237.853 37.9119 237.566 37.0952 236.99 36.5128C236.422 35.9304 235.559 35.6392 234.402 35.6392C233.201 35.6392 232.26 35.902 231.578 36.4276C230.897 36.9531 230.417 37.5142 230.14 38.1108L227.754 37.2585C228.18 36.2642 228.748 35.4901 229.458 34.9361C230.176 34.375 230.957 33.9844 231.802 33.7642C232.654 33.5369 233.492 33.4233 234.316 33.4233C234.842 33.4233 235.446 33.4872 236.127 33.6151C236.816 33.7358 237.48 33.9879 238.12 34.3714C238.766 34.755 239.302 35.3338 239.728 36.108C240.154 36.8821 240.367 37.919 240.367 39.2188V50H237.853V47.7841H237.725C237.555 48.1392 237.271 48.5192 236.873 48.924C236.475 49.3288 235.946 49.6733 235.286 49.9574C234.625 50.2415 233.819 50.3835 232.867 50.3835ZM233.251 48.125C234.245 48.125 235.083 47.9297 235.765 47.5391C236.454 47.1484 236.973 46.6442 237.321 46.0263C237.676 45.4084 237.853 44.7585 237.853 44.0767V41.7756C237.747 41.9034 237.512 42.0206 237.15 42.1271C236.795 42.2266 236.383 42.3153 235.914 42.3935C235.453 42.4645 235.002 42.5284 234.561 42.5852C234.128 42.6349 233.777 42.6776 233.507 42.7131C232.853 42.7983 232.242 42.9368 231.674 43.1286C231.113 43.3132 230.659 43.5937 230.311 43.9702C229.97 44.3395 229.799 44.8437 229.799 45.483C229.799 46.3565 230.122 47.017 230.769 47.4645C231.422 47.9048 232.25 48.125 233.251 48.125ZM248.971 40.1562V50H246.456V33.6364H248.885V36.1932H249.098C249.482 35.3622 250.064 34.6946 250.846 34.1903C251.627 33.679 252.635 33.4233 253.871 33.4233C254.979 33.4233 255.949 33.6506 256.78 34.1051C257.611 34.5526 258.257 35.2344 258.718 36.1506C259.18 37.0597 259.411 38.2102 259.411 39.6023V50H256.897V39.7727C256.897 38.4872 256.563 37.4858 255.895 36.7685C255.228 36.044 254.312 35.6818 253.147 35.6818C252.344 35.6818 251.627 35.8558 250.995 36.2038C250.37 36.5518 249.876 37.0597 249.514 37.7273C249.152 38.3949 248.971 39.2045 248.971 40.1562Z" fill="white"/>
</svg>
